<?xml version="1.0" encoding="UTF-8"?>
<svg id="Layer_2" data-name="Layer 2" xmlns="http://www.w3.org/2000/svg" xmlns:xlink="http://www.w3.org/1999/xlink" viewBox="0 0 2364.71 2705.18">
  <defs>
    <style>
      .cls-1 {
        stroke: url(#radial-gradient);
        stroke-width: 192.09px;
      }

      .cls-1, .cls-2, .cls-3, .cls-4 {
        stroke-miterlimit: 10;
      }

      .cls-1, .cls-2, .cls-4 {
        fill: none;
      }

      .cls-2 {
        stroke: url(#Green_Gradiant:_HOMBIR);
      }

      .cls-2, .cls-4 {
        stroke-width: 240.11px;
      }

      .cls-3 {
        fill: url(#linear-gradient);
        stroke: url(#linear-gradient-2);
        stroke-width: 48.02px;
      }

      .cls-4 {
        stroke: url(#Green_Gradiant:_HOMBIR-2);
      }
    </style>
    <radialGradient id="Green_Gradiant:_HOMBIR" data-name="Green Gradiant: HOMBIR" cx="1158.24" cy="1402.51" fx="1158.24" fy="1402.51" r="1272.25" gradientTransform="translate(33.57 -57.67) rotate(.38)" gradientUnits="userSpaceOnUse">
      <stop offset="0" stop-color="#648373"/>
      <stop offset="1" stop-color="#375052"/>
    </radialGradient>
    <radialGradient id="radial-gradient" cx="639.15" cy="2317.18" fx="639.15" fy="2317.18" r="547.61" gradientTransform="translate(33.57 -57.67) rotate(.38)" gradientUnits="userSpaceOnUse">
      <stop offset="0" stop-color="#648373"/>
      <stop offset="1" stop-color="#375052"/>
    </radialGradient>
    <radialGradient id="Green_Gradiant:_HOMBIR-2" data-name="Green Gradiant: HOMBIR" cx="1662.13" cy="1422.5" fx="1662.13" fy="1422.5" r="1032.59" xlink:href="#Green_Gradiant:_HOMBIR"/>
    <linearGradient id="linear-gradient" x1="1518.42" y1="1402.51" x2="1805.85" y2="1402.51" gradientTransform="translate(1517.22 -812.25) rotate(45.38)" gradientUnits="userSpaceOnUse">
      <stop offset="0" stop-color="#648373"/>
      <stop offset="1" stop-color="#375052"/>
    </linearGradient>
    <linearGradient id="linear-gradient-2" x1="1494.41" y1="1402.51" x2="1829.86" y2="1402.51" gradientTransform="translate(1517.22 -812.25) rotate(45.38)" gradientUnits="userSpaceOnUse">
      <stop offset="0" stop-color="#375052"/>
      <stop offset="1" stop-color="#648373"/>
    </linearGradient>
  </defs>
  <g id="Layer_1-2" data-name="Layer 1">
    <path class="cls-2" d="m2243.24,1981.69l-1055.67,603.06c-1.89,1.08-4.25-.32-4.25-2.51l-.26-344.85-.29-349.77-.41-529.28c0-2.2-2.37-3.59-4.25-2.51L125.27,1957.27c-1.89,1.08-4.25-.32-4.25-2.51l-.96-1227.2c0-1.02.54-1.96,1.42-2.46L1179.98,120.42c.88-.5,1.96-.49,2.84.03l1059.47,625.81c.88.52,1.42,1.47,1.42,2.48l.96,1230.49c0,1.02-.54,1.96-1.42,2.46Z"/>
    <path class="cls-1" d="m1167.85,2595.74L121.79,1985.4c-16.21-9.46-16.11-32.92.19-42.24l1082.54,631.63c-.09,18.77-20.46,30.41-36.67,20.95Z"/>
    <path class="cls-4" d="m1223.19,177.52l961.29,549.53c2.22,1.27,3.59,3.62,3.6,6.17l6.27,1248.96c.01,2.58-1.36,4.97-3.6,6.25l-1014.21,579.37c-4.82,2.75-10.81-.8-10.7-6.35l46.65-2377.87c.11-5.43,5.99-8.76,10.7-6.07Z"/>
    <circle class="cls-3" cx="1686.25" cy="1355.96" r="143.69" transform="translate(-464.92 1589.51) rotate(-45)"/>
  </g>
</svg>