<?xml version="1.0" encoding="UTF-8"?>
<svg id="Layer_2" data-name="Layer 2" xmlns="http://www.w3.org/2000/svg" xmlns:xlink="http://www.w3.org/1999/xlink" viewBox="0 0 3728.75 1126.65">
  <defs>
    <style>
      .cls-1 {
        stroke: url(#radial-gradient);
        stroke-width: 80px;
      }

      .cls-1, .cls-2, .cls-3, .cls-4 {
        stroke-miterlimit: 10;
      }

      .cls-1, .cls-2, .cls-4 {
        fill: none;
      }

      .cls-2 {
        stroke: url(#Green_Gradiant:_HOMBIR-2);
      }

      .cls-2, .cls-4 {
        stroke-width: 100px;
      }

      .cls-3 {
        fill: url(#linear-gradient);
        stroke: url(#linear-gradient-2);
        stroke-width: 20px;
      }

      .cls-4 {
        stroke: url(#Green_Gradiant:_HOMBIR);
      }
    </style>
    <radialGradient id="Green_Gradiant:_HOMBIR" data-name="Green Gradiant: HOMBIR" cx="473.9" cy="597.96" fx="473.9" fy="597.96" r="529.87" gradientTransform="translate(22.55 -37.8) rotate(.38)" gradientUnits="userSpaceOnUse">
      <stop offset="0" stop-color="#648373"/>
      <stop offset="1" stop-color="#375052"/>
    </radialGradient>
    <radialGradient id="radial-gradient" cx="257.72" cy="978.9" fx="257.72" fy="978.9" r="228.07" gradientTransform="translate(22.55 -37.8) rotate(.38)" gradientUnits="userSpaceOnUse">
      <stop offset="0" stop-color="#648373"/>
      <stop offset="1" stop-color="#375052"/>
    </radialGradient>
    <radialGradient id="Green_Gradiant:_HOMBIR-2" data-name="Green Gradiant: HOMBIR" cx="683.77" cy="606.28" fx="683.77" fy="606.28" r="430.05" xlink:href="#Green_Gradiant:_HOMBIR"/>
    <linearGradient id="linear-gradient" x1="623.91" y1="597.96" x2="743.62" y2="597.96" gradientTransform="translate(647.7 -341.97) rotate(45.38)" gradientUnits="userSpaceOnUse">
      <stop offset="0" stop-color="#648373"/>
      <stop offset="1" stop-color="#375052"/>
    </linearGradient>
    <linearGradient id="linear-gradient-2" x1="613.91" y1="597.96" x2="753.62" y2="597.96" gradientTransform="translate(647.7 -341.97) rotate(45.38)" gradientUnits="userSpaceOnUse">
      <stop offset="0" stop-color="#375052"/>
      <stop offset="1" stop-color="#648373"/>
    </linearGradient>
  </defs>
  <g id="Layer_1-2" data-name="Layer 1">
    <g>
      <path d="m1574.5,262.43c9.53-.07,14.35,5.32,14.42,16.18.1,13.18-.04,26.36-.41,39.55-.37,13.18-.62,26.37-.76,39.55-.27,27.66-.41,55.44-.44,83.36-.03,27.92.06,55.7.26,83.35.22,29.72.55,59.58,1.01,89.55.45,29.98,1.02,59.96,1.71,89.93.57,14.21,1.14,28.49,1.71,42.83.57,14.34.91,28.62,1.01,42.83.08,10.86-4.65,16.32-14.19,16.39l-60.01.44c-5.12.04-8.62-1.23-10.5-3.8-1.88-2.57-3.19-6.43-3.92-11.6-.5-4.65-.84-11.17-1.02-19.57-.18-8.39-.24-16.99-.19-25.78.05-8.79.06-15.9.02-21.32-1.04-46.52-1.73-93.04-2.07-139.56-.02-3.1-1.55-4.64-4.57-4.62l-234.47,1.72c-2.79.02-4.18,1.58-4.15,4.68.34,46.52.33,93.05-.02,139.57.04,5.43.15,12.54.33,21.32.18,8.79.3,17.38.36,25.78.06,8.4-.24,14.93-.9,19.58-.66,5.18-1.85,9.07-3.58,11.66-1.73,2.6-5.27,3.92-10.61,3.96l-60.36.44c-9.54.07-14.35-5.32-14.42-16.18-.1-14.21.08-28.5.56-42.84.47-14.35.78-28.63.91-42.85.24-29.98.37-59.96.39-89.95,0-29.98-.09-59.83-.31-89.56-.2-27.65-.53-55.44-.96-83.35-.44-27.91-.99-55.69-1.66-83.34-.33-13.18-.78-26.36-1.34-39.53-.57-13.18-.89-26.36-.99-39.54-.08-10.85,4.65-16.32,14.19-16.39l60.36-.44c5.35-.04,8.91,1.23,10.67,3.8,1.76,2.57,3.01,6.44,3.75,11.6.98,6.97,1.35,17.63,1.11,31.98-.24,14.35-.22,25.66.07,33.92.4,23,.74,46.07,1.03,69.2.28,23.13.51,46.2.68,69.2.02,3.1,1.54,4.64,4.57,4.62l234.12-1.72c3.02-.02,4.52-1.58,4.5-4.69-.17-23-.28-46.07-.33-69.2-.06-23.13-.05-46.2.02-69.21.17-8.27.03-19.58-.42-33.92-.45-14.34-.24-25,.64-31.99.66-5.17,1.91-9.06,3.75-11.66,1.84-2.59,5.32-3.92,10.44-3.95l60.01-.44Z"/>
      <path d="m1661.98,534.35c-.27-36.18,5.12-70.92,16.16-104.22,11.04-33.29,26.75-63.06,47.15-89.32,20.39-26.25,44.67-47.05,72.82-62.37,28.15-15.33,59.2-23.12,93.17-23.36,33.96-.25,65.18,7.15,93.68,22.19,28.49,15.04,53.24,35.61,74.25,61.68,21.01,26.08,37.4,55.75,49.15,89,11.76,33.26,17.77,67.98,18.04,104.16.27,36.19-5.24,70.79-16.51,103.83-11.27,33.04-27.28,62.56-48.03,88.55-20.74,26-45.25,46.6-73.52,61.8-28.27,15.2-59.27,22.92-92.99,23.17-34.43.25-65.82-6.94-94.19-21.6-28.37-14.65-52.89-34.83-73.54-60.52-20.66-25.69-36.69-55.1-48.1-88.24-11.41-33.12-17.25-68.04-17.52-104.74Zm235.81,181.65c29.77-.22,54.89-9.45,75.34-27.69,20.45-18.24,35.98-41.49,46.59-69.74,10.61-28.25,15.8-57.24,15.59-86.96-.22-30.49-6.02-59.79-17.39-87.88-11.37-28.08-27.65-51.17-48.83-69.23-21.19-18.07-46.78-26.99-76.79-26.77-29.31.22-54.54,9.45-75.69,27.7-21.15,18.25-37.33,41.44-48.51,69.56-11.19,28.13-16.68,57.31-16.45,87.55.22,30.5,6.31,59.85,18.27,88.07,11.95,28.21,28.81,51.23,50.58,69.03,21.76,17.81,47.53,26.6,77.31,26.38Z"/>
      <path d="m2212.81,801.3c-9.54.07-14.34-5.32-14.42-16.18-.1-14.21.08-28.43.56-42.65.47-14.22.78-28.44.91-42.66.48-29.98.72-59.9.74-89.76,0-29.85-.09-59.64-.31-89.36-.28-37.73-.79-75.46-1.53-113.2-.75-37.73-1.72-75.33-2.92-112.8l-.03-3.88c-.01-2.07.24-6.72.77-13.96.53-7.24,2.65-10.88,6.38-10.9,3.25-.02,6.76,2.54,10.52,7.68,3.76,5.15,6.46,8.87,8.11,11.18,36.21,53.76,71.16,108.75,104.84,164.97,33.68,56.23,68.16,111.61,103.46,166.15,1.17,1.8,2.34,2.7,3.51,2.69,1.16,0,2.32-.92,3.47-2.74,35.41-55.31,69.95-111.4,103.62-168.25,33.66-56.85,68.55-112.55,104.67-167.09,1.61-2.34,4.32-6.04,8.12-11.11,3.8-5.07,7.21-7.61,10.24-7.64,3.95-.03,6.19,3.58,6.71,10.81.52,7.24.79,11.88.8,13.95l.03,3.88c-.66,37.75-1.08,75.55-1.26,113.41-.19,37.87-.14,75.67.13,113.4.22,29.72.55,59.51,1.01,89.36.45,29.85,1.14,59.76,2.05,89.74.57,14.21,1.14,28.43,1.71,42.64.57,14.21.91,28.43,1.01,42.64.08,10.86-4.65,16.32-14.19,16.39l-60.01.44c-5.12.04-8.68-1.23-10.67-3.8-2-2.57-3.25-6.43-3.75-11.6-.26-3.62-.4-7.56-.44-11.82-.03-4.26-.06-8.34-.09-12.21l-1.11-56.21c-.68-28.16-1.23-56.33-1.67-84.51-.44-28.17-.76-56.34-.97-84.51,0-.52-.08-2.13-.21-4.85-.14-2.71-.79-4.06-1.95-4.06-.93,0-1.97.98-3.12,2.93-1.15,1.95-1.96,3.18-2.42,3.7-14.93,25.96-29.69,52.11-44.26,78.45-14.58,26.34-29.33,52.62-44.26,78.83-5.97,10.64-11.94,21.41-17.91,32.31-5.97,10.9-12.17,21.55-18.61,31.93-1.38,2.08-2.99,4.35-4.83,6.82-1.85,2.47-4.16,3.71-6.95,3.74-2.56.02-4.84-1.06-6.83-3.25-2-2.18-3.7-4.3-5.11-6.36-5.88-9-11.71-18.14-17.47-27.4-5.77-9.26-11.48-18.53-17.13-27.79-16.48-26.24-32.9-52.68-49.26-79.31-16.37-26.63-33.01-52.93-49.95-78.92-.24-.51-.94-1.6-2.12-3.28-1.18-1.67-2.23-2.5-3.16-2.5-1.17,0-1.86,1.31-2.07,3.89-.22,2.59-.32,4.14-.31,4.66.2,27.4.28,54.73.25,82-.03,27.27-.18,54.61-.44,82l-.3,54.67c.03,3.62.11,7.5.26,11.63.15,4.14,0,8.01-.44,11.63-.43,5.18-1.56,9.06-3.4,11.66-1.85,2.6-5.44,3.92-10.79,3.96l-57.22.42Z"/>
      <path d="m2759.52,270.02c-.08-10.85,4.65-16.32,14.19-16.39l141.31-1.04c20.46-.15,41.47,1.63,63.02,5.35,21.54,3.72,41.48,10.49,59.82,20.3,18.33,9.82,33.2,23.67,44.62,41.54,11.41,17.88,17.22,40.78,17.43,68.69.19,25.33-4.48,47.53-13.99,66.59-9.51,19.07-23.53,35.65-42.03,49.74-.69.53-1.51,1.11-2.43,1.76-.93.65-1.38,1.63-1.37,2.92,0,1.04.54,1.93,1.59,2.7s1.93,1.41,2.63,1.92c23.82,13.01,43.83,29.14,60.02,48.41,16.19,19.27,24.4,44.67,24.63,76.2.22,29.72-5.18,54.64-16.2,74.75-11.02,20.11-25.73,36.18-44.13,48.2-18.4,12.03-38.81,20.71-61.22,26.04-22.41,5.34-44.9,8.08-67.46,8.25l-162.59,1.19c-9.54.07-14.35-5.32-14.42-16.18-.11-14.47.01-29.01.38-43.62.36-14.6.6-29.14.73-43.62.27-58.16.19-116.31-.23-174.46-.4-54.27-1.15-108.55-2.24-162.82-.34-14.47-.74-28.94-1.19-43.41-.45-14.47-.73-28.81-.84-43.03Zm91.22,210.24l81.3-.6c12.79-.09,25.16-2.57,37.11-7.44,11.94-4.87,21.72-12.5,29.32-22.9,7.6-10.39,11.34-23.6,11.22-39.63-.13-17.83-5-31.3-14.6-40.41-9.61-9.1-21.28-15.29-35.03-18.55-13.75-3.25-27.02-4.84-39.81-4.75l-70.83.52c.39,22.23.67,44.52.84,66.87.17,22.36.33,44.65.49,66.87Zm1.31,226.02l85.13-.62c9.77-.07,20.46-1.05,32.08-2.95,11.62-1.89,22.7-5.33,33.25-10.33,10.55-4.98,19.22-11.97,26.02-20.93,6.79-8.97,10.14-20.43,10.04-34.39-.11-14.47-4.03-26.01-11.77-34.61-7.74-8.6-17.5-15.05-29.28-19.36-11.78-4.31-23.95-7.12-36.53-8.46-12.57-1.33-23.63-1.96-33.16-1.89l-76.41.56c.16,21.97.32,44.07.49,66.29.16,22.23.21,44.46.14,66.68Z"/>
      <path d="m3192.17,266.46c-.08-10.59,4.65-15.93,14.19-16l60.36-.44c9.53-.07,14.34,5.19,14.42,15.79.31,42.65.51,85.29.59,127.94.08,42.65.28,85.29.59,127.94.31,42.64.74,85.29,1.29,127.93.54,42.64.97,85.29,1.29,127.93.08,10.6-4.65,15.93-14.19,16l-60.36.44c-9.54.07-14.34-5.19-14.42-15.79-.31-42.64-.51-85.29-.59-127.94-.08-42.65-.28-85.29-.59-127.94-.31-42.65-.75-85.29-1.29-127.93-.55-42.64-.97-85.29-1.29-127.93Z"/>
      <path d="m3508.86,248.24c34.42-.25,65.64,5.79,93.65,18.12,28,12.33,50.3,31.56,66.89,57.66,16.59,26.11,25.04,59.98,25.35,101.58.24,33.34-5.35,63.49-16.78,90.46-11.44,26.97-29.88,49.59-55.33,67.87-1.62.79-2.43,2.09-2.41,3.9,0,1.04,3.13,7.09,9.38,18.15,6.24,11.07,14.14,24.71,23.68,40.92,9.54,16.21,19.31,32.68,29.32,49.41,10.01,16.73,18.78,31.53,26.32,44.39,7.54,12.87,12.37,21.11,14.49,24.71,1.18,2.06,2.35,4.31,3.54,6.76,1.18,2.45,1.78,5.09,1.8,7.93.03,4.65-2.1,7.52-6.39,8.58-4.3,1.07-7.84,1.61-10.63,1.63l-69.43.51c-4.66.03-8.62-2.26-11.91-6.89-7.29-10.28-14.11-21.15-20.48-32.61-6.36-11.45-12.85-22.58-19.44-33.39-10.37-17.5-20.84-34.93-31.44-52.3-10.6-17.37-20.96-34.93-31.09-52.69-.95-1.8-2.23-2.7-3.86-2.69l-62.45.46c-2.79.02-4.18,1.58-4.15,4.68.13,17.83.2,35.73.22,53.7.01,17.97-.03,35.86-.13,53.7.06,7.5.3,16.61.72,27.33.43,10.73.2,19.58-.68,26.56-.66,5.18-1.85,9.07-3.58,11.66-1.73,2.6-5.27,3.92-10.61,3.96l-60.36.44c-9.54.07-14.34-5.32-14.42-16.18-.1-13.96.02-27.97.39-42.07.36-14.09.61-28.24.74-42.46.27-58.93.18-117.99-.25-177.18-.41-56.08-1.17-112.42-2.29-169.02-.33-13.43-.72-26.81-1.17-40.12-.45-13.31-.72-26.68-.82-40.12-.08-10.85,4.65-16.32,14.19-16.39l129.45-.95Zm-52.11,269.45l70.48-.52c23.03-.17,41.69-8.32,56-24.45,14.3-16.13,21.36-37.12,21.17-62.96-.2-26.62-7.1-48.02-20.71-64.21-13.61-16.18-32.51-24.19-56.7-24.01l-71.88.53c.44,29.21.78,58.48.99,87.81.21,29.34.43,58.61.64,87.81Z"/>
    </g>
    <path class="cls-4" d="m934.26,825.33l-439.67,251.16c-.79.45-1.77-.13-1.77-1.05l-.11-143.62-.12-145.67-.17-220.43c0-.91-.99-1.5-1.77-1.05L52.17,815.16c-.79.45-1.77-.13-1.77-1.05l-.4-511.1c0-.42.22-.81.59-1.02L491.44,50.15c.37-.21.82-.2,1.18.01l441.25,260.64c.37.22.59.61.59,1.03l.4,512.47c0,.42-.22.81-.59,1.02Z"/>
    <path class="cls-1" d="m486.38,1081.07L50.72,826.88c-6.75-3.94-6.71-13.71.08-17.59l450.85,263.06c-.04,7.82-8.52,12.66-15.27,8.73Z"/>
    <path class="cls-2" d="m509.43,73.93l400.36,228.87c.92.53,1.5,1.51,1.5,2.57l2.61,520.17c0,1.07-.57,2.07-1.5,2.6l-422.4,241.3c-2.01,1.15-4.5-.33-4.46-2.64l19.43-990.33c.04-2.26,2.49-3.65,4.46-2.53Z"/>
    <circle class="cls-3" cx="702.29" cy="564.73" r="59.84" transform="translate(-193.63 662) rotate(-45)"/>
  </g>
</svg>